# xmcd
#
# Track frame offsets:
#	150
#	14050
#	18575
#	38890
#	53655
#	74705
#	91205
#	119215
#	139150
#	157325
#	179725
#	193315
#	213060
#	233340
#
# Disc length: 3304 seconds
#
# Revision: 0
# Processed by: cddbd v1.5.2PL0 Copyright (c) Steve Scherf et al.
# Submitted via: EZCDAudioConverter 7.1.7.1
#
DISCID=d50ce60e
DTITLE=罗百吉 - 狂舞
DYEAR=2006
DGENRE=
TTITLE0=无聊男子
TTITLE1=序曲
TTITLE2=光影
TTITLE3=禁声
TTITLE4=新鲜
TTITLE5=灿烂前程
TTITLE6=林阴
TTITLE7=伦敦夜车
TTITLE8=快跑
TTITLE9=激战上海滩
TTITLE10=新世纪欧巴桑
TTITLE11=感·性
TTITLE12=就是今夜
TTITLE13=禁声宝宝版
EXTD=
EXTT0=
EXTT1=
EXTT2=
EXTT3=
EXTT4=
EXTT5=
EXTT6=
EXTT7=
EXTT8=
EXTT9=
EXTT10=
EXTT11=
EXTT12=
EXTT13=
PLAYORDER=
